# xmcd CD database file
#
# Track frame offsets:
#	150
#	24607
#	51255
#	97125
#	121657
#	143225
#	170130
#
# Disc length: 2535 seconds
#
# Revision: 0
# Processed by: cddbd v1.5.2PL0 Copyright (c) Steve Scherf et al.
# Submitted via: CDex 1.70beta2
#
DISCID=6109e507
DTITLE=Weather Report - Weather Report
DYEAR=1982
DGENRE=Jazz
TTITLE0=Volcano For Hire
TTITLE1=Current Affairs
TTITLE2=N.Y.C.
TTITLE3=Dara Factor One
TTITLE4=When It Was Now
TTITLE5=Speechless
TTITLE6=Dara Factor Two
EXTD=YEAR: 1982
EXTT0=
EXTT1=
EXTT2=
EXTT3=
EXTT4=
EXTT5=
EXTT6=
PLAYORDER=
